<mxfile host="app.diagrams.net" modified="2023-08-04T13:13:25.751Z" agent="Mozilla/5.0 (Windows NT 10.0; Win64; x64) AppleWebKit/537.36 (KHTML, like Gecko) Chrome/115.0.0.0 Safari/537.36" etag="oV9xagWzYoc0urpTWRU6" version="21.6.6" type="device">
  <diagram name="Page-1" id="2fXDQWLyyvq0IY__lDyM">
    <mxGraphModel dx="2327" dy="1932" grid="1" gridSize="10" guides="1" tooltips="1" connect="1" arrows="1" fold="1" page="1" pageScale="1" pageWidth="827" pageHeight="1169" math="0" shadow="0">
      <root>
        <mxCell id="0" />
        <mxCell id="1" parent="0" />
        <mxCell id="9ZQoxIhX9ublvq8rPNBV-27" style="edgeStyle=orthogonalEdgeStyle;rounded=0;orthogonalLoop=1;jettySize=auto;html=1;exitX=0.5;exitY=1;exitDx=0;exitDy=0;entryX=0.5;entryY=0;entryDx=0;entryDy=0;" edge="1" parent="1" source="9ZQoxIhX9ublvq8rPNBV-1" target="9ZQoxIhX9ublvq8rPNBV-37">
          <mxGeometry relative="1" as="geometry">
            <mxPoint x="420.0000000000002" y="290" as="targetPoint" />
          </mxGeometry>
        </mxCell>
        <mxCell id="9ZQoxIhX9ublvq8rPNBV-1" value="Projects" style="whiteSpace=wrap;html=1;align=center;" vertex="1" parent="1">
          <mxGeometry x="350" y="130" width="100" height="40" as="geometry" />
        </mxCell>
        <mxCell id="9ZQoxIhX9ublvq8rPNBV-3" style="edgeStyle=orthogonalEdgeStyle;rounded=0;orthogonalLoop=1;jettySize=auto;html=1;entryX=0.5;entryY=0;entryDx=0;entryDy=0;" edge="1" parent="1" source="9ZQoxIhX9ublvq8rPNBV-2" target="9ZQoxIhX9ublvq8rPNBV-1">
          <mxGeometry relative="1" as="geometry" />
        </mxCell>
        <mxCell id="9ZQoxIhX9ublvq8rPNBV-2" value="SDG" style="ellipse;whiteSpace=wrap;html=1;align=center;" vertex="1" parent="1">
          <mxGeometry x="220" y="20" width="100" height="40" as="geometry" />
        </mxCell>
        <mxCell id="9ZQoxIhX9ublvq8rPNBV-7" style="edgeStyle=orthogonalEdgeStyle;rounded=0;orthogonalLoop=1;jettySize=auto;html=1;exitX=0.5;exitY=1;exitDx=0;exitDy=0;entryX=0.5;entryY=0;entryDx=0;entryDy=0;" edge="1" parent="1" source="9ZQoxIhX9ublvq8rPNBV-4" target="9ZQoxIhX9ublvq8rPNBV-1">
          <mxGeometry relative="1" as="geometry" />
        </mxCell>
        <mxCell id="9ZQoxIhX9ublvq8rPNBV-4" value="Title" style="ellipse;whiteSpace=wrap;html=1;align=center;" vertex="1" parent="1">
          <mxGeometry x="350" y="-30" width="100" height="40" as="geometry" />
        </mxCell>
        <mxCell id="9ZQoxIhX9ublvq8rPNBV-6" style="edgeStyle=orthogonalEdgeStyle;rounded=0;orthogonalLoop=1;jettySize=auto;html=1;exitX=1;exitY=0.5;exitDx=0;exitDy=0;entryX=0.5;entryY=0;entryDx=0;entryDy=0;" edge="1" parent="1" source="9ZQoxIhX9ublvq8rPNBV-5" target="9ZQoxIhX9ublvq8rPNBV-1">
          <mxGeometry relative="1" as="geometry" />
        </mxCell>
        <mxCell id="9ZQoxIhX9ublvq8rPNBV-5" value="Expa ID" style="ellipse;whiteSpace=wrap;html=1;align=center;fontStyle=4;" vertex="1" parent="1">
          <mxGeometry x="200" y="80" width="100" height="40" as="geometry" />
        </mxCell>
        <mxCell id="9ZQoxIhX9ublvq8rPNBV-12" style="edgeStyle=orthogonalEdgeStyle;rounded=0;orthogonalLoop=1;jettySize=auto;html=1;entryX=0.75;entryY=0;entryDx=0;entryDy=0;" edge="1" parent="1" source="9ZQoxIhX9ublvq8rPNBV-8" target="9ZQoxIhX9ublvq8rPNBV-1">
          <mxGeometry relative="1" as="geometry">
            <mxPoint x="530" y="130" as="targetPoint" />
          </mxGeometry>
        </mxCell>
        <mxCell id="9ZQoxIhX9ublvq8rPNBV-8" value="Organization" style="ellipse;whiteSpace=wrap;html=1;align=center;" vertex="1" parent="1">
          <mxGeometry x="460" width="100" height="40" as="geometry" />
        </mxCell>
        <mxCell id="9ZQoxIhX9ublvq8rPNBV-15" style="edgeStyle=orthogonalEdgeStyle;rounded=0;orthogonalLoop=1;jettySize=auto;html=1;exitX=0;exitY=0.5;exitDx=0;exitDy=0;entryX=0.75;entryY=0;entryDx=0;entryDy=0;" edge="1" parent="1" source="9ZQoxIhX9ublvq8rPNBV-14" target="9ZQoxIhX9ublvq8rPNBV-1">
          <mxGeometry relative="1" as="geometry" />
        </mxCell>
        <mxCell id="9ZQoxIhX9ublvq8rPNBV-14" value="JDs" style="ellipse;whiteSpace=wrap;html=1;align=center;" vertex="1" parent="1">
          <mxGeometry x="470" y="60" width="100" height="40" as="geometry" />
        </mxCell>
        <mxCell id="9ZQoxIhX9ublvq8rPNBV-17" style="edgeStyle=orthogonalEdgeStyle;rounded=0;orthogonalLoop=1;jettySize=auto;html=1;exitX=0;exitY=0.5;exitDx=0;exitDy=0;entryX=1;entryY=0.5;entryDx=0;entryDy=0;" edge="1" parent="1" source="9ZQoxIhX9ublvq8rPNBV-16" target="9ZQoxIhX9ublvq8rPNBV-1">
          <mxGeometry relative="1" as="geometry">
            <mxPoint x="425" y="130" as="targetPoint" />
          </mxGeometry>
        </mxCell>
        <mxCell id="9ZQoxIhX9ublvq8rPNBV-16" value="Accommodation (Provided/Covered/both)" style="ellipse;whiteSpace=wrap;html=1;align=center;" vertex="1" parent="1">
          <mxGeometry x="610" y="100" width="140" height="60" as="geometry" />
        </mxCell>
        <mxCell id="9ZQoxIhX9ublvq8rPNBV-19" style="edgeStyle=orthogonalEdgeStyle;rounded=0;orthogonalLoop=1;jettySize=auto;html=1;exitX=0;exitY=0.5;exitDx=0;exitDy=0;entryX=1;entryY=0.5;entryDx=0;entryDy=0;" edge="1" parent="1" source="9ZQoxIhX9ublvq8rPNBV-18" target="9ZQoxIhX9ublvq8rPNBV-1">
          <mxGeometry relative="1" as="geometry" />
        </mxCell>
        <mxCell id="9ZQoxIhX9ublvq8rPNBV-18" value="Transportation (Provided/Covered/both)" style="ellipse;whiteSpace=wrap;html=1;align=center;" vertex="1" parent="1">
          <mxGeometry x="610" y="170" width="150" height="70" as="geometry" />
        </mxCell>
        <mxCell id="9ZQoxIhX9ublvq8rPNBV-21" style="edgeStyle=orthogonalEdgeStyle;rounded=0;orthogonalLoop=1;jettySize=auto;html=1;exitX=0;exitY=0.5;exitDx=0;exitDy=0;entryX=1;entryY=0.5;entryDx=0;entryDy=0;" edge="1" parent="1" source="9ZQoxIhX9ublvq8rPNBV-20" target="9ZQoxIhX9ublvq8rPNBV-1">
          <mxGeometry relative="1" as="geometry" />
        </mxCell>
        <mxCell id="9ZQoxIhX9ublvq8rPNBV-20" value="Food (Provided/Covered/both)" style="ellipse;whiteSpace=wrap;html=1;align=center;" vertex="1" parent="1">
          <mxGeometry x="610" y="250" width="150" height="70" as="geometry" />
        </mxCell>
        <mxCell id="9ZQoxIhX9ublvq8rPNBV-23" style="edgeStyle=orthogonalEdgeStyle;rounded=0;orthogonalLoop=1;jettySize=auto;html=1;entryX=0;entryY=0.5;entryDx=0;entryDy=0;" edge="1" parent="1" source="9ZQoxIhX9ublvq8rPNBV-22" target="9ZQoxIhX9ublvq8rPNBV-1">
          <mxGeometry relative="1" as="geometry" />
        </mxCell>
        <mxCell id="9ZQoxIhX9ublvq8rPNBV-22" value="Accommodation photos link" style="ellipse;whiteSpace=wrap;html=1;align=center;" vertex="1" parent="1">
          <mxGeometry x="90" y="140" width="120" height="50" as="geometry" />
        </mxCell>
        <mxCell id="9ZQoxIhX9ublvq8rPNBV-25" style="edgeStyle=orthogonalEdgeStyle;rounded=0;orthogonalLoop=1;jettySize=auto;html=1;exitX=1;exitY=0.5;exitDx=0;exitDy=0;entryX=0;entryY=0.5;entryDx=0;entryDy=0;" edge="1" parent="1" source="9ZQoxIhX9ublvq8rPNBV-24" target="9ZQoxIhX9ublvq8rPNBV-1">
          <mxGeometry relative="1" as="geometry" />
        </mxCell>
        <mxCell id="9ZQoxIhX9ublvq8rPNBV-24" value="Project booklet link" style="ellipse;whiteSpace=wrap;html=1;align=center;" vertex="1" parent="1">
          <mxGeometry x="90" y="200" width="120" height="50" as="geometry" />
        </mxCell>
        <mxCell id="9ZQoxIhX9ublvq8rPNBV-29" style="edgeStyle=orthogonalEdgeStyle;rounded=0;orthogonalLoop=1;jettySize=auto;html=1;exitX=0.5;exitY=1;exitDx=0;exitDy=0;entryX=0.5;entryY=0;entryDx=0;entryDy=0;" edge="1" parent="1" source="9ZQoxIhX9ublvq8rPNBV-37" target="9ZQoxIhX9ublvq8rPNBV-36">
          <mxGeometry relative="1" as="geometry">
            <mxPoint x="420.0000000000002" y="350" as="sourcePoint" />
            <mxPoint x="530.0000000000002" y="430" as="targetPoint" />
          </mxGeometry>
        </mxCell>
        <mxCell id="9ZQoxIhX9ublvq8rPNBV-39" style="edgeStyle=orthogonalEdgeStyle;rounded=0;orthogonalLoop=1;jettySize=auto;html=1;exitX=1;exitY=0.5;exitDx=0;exitDy=0;entryX=0.5;entryY=1;entryDx=0;entryDy=0;" edge="1" parent="1" source="9ZQoxIhX9ublvq8rPNBV-36" target="9ZQoxIhX9ublvq8rPNBV-38">
          <mxGeometry relative="1" as="geometry" />
        </mxCell>
        <mxCell id="9ZQoxIhX9ublvq8rPNBV-42" style="edgeStyle=orthogonalEdgeStyle;rounded=0;orthogonalLoop=1;jettySize=auto;html=1;" edge="1" parent="1" source="9ZQoxIhX9ublvq8rPNBV-36" target="9ZQoxIhX9ublvq8rPNBV-40">
          <mxGeometry relative="1" as="geometry" />
        </mxCell>
        <mxCell id="9ZQoxIhX9ublvq8rPNBV-44" style="edgeStyle=orthogonalEdgeStyle;rounded=0;orthogonalLoop=1;jettySize=auto;html=1;entryX=0.5;entryY=1;entryDx=0;entryDy=0;" edge="1" parent="1" source="9ZQoxIhX9ublvq8rPNBV-36" target="9ZQoxIhX9ublvq8rPNBV-43">
          <mxGeometry relative="1" as="geometry" />
        </mxCell>
        <mxCell id="9ZQoxIhX9ublvq8rPNBV-46" style="edgeStyle=orthogonalEdgeStyle;rounded=0;orthogonalLoop=1;jettySize=auto;html=1;exitX=1;exitY=0.5;exitDx=0;exitDy=0;entryX=0.5;entryY=0;entryDx=0;entryDy=0;" edge="1" parent="1" source="9ZQoxIhX9ublvq8rPNBV-36" target="9ZQoxIhX9ublvq8rPNBV-45">
          <mxGeometry relative="1" as="geometry" />
        </mxCell>
        <mxCell id="9ZQoxIhX9ublvq8rPNBV-36" value="Slots" style="shape=ext;margin=3;double=1;whiteSpace=wrap;html=1;align=center;" vertex="1" parent="1">
          <mxGeometry x="520" y="430" width="120" height="40" as="geometry" />
        </mxCell>
        <mxCell id="9ZQoxIhX9ublvq8rPNBV-37" value="Relationship" style="shape=rhombus;double=1;perimeter=rhombusPerimeter;whiteSpace=wrap;html=1;align=center;" vertex="1" parent="1">
          <mxGeometry x="360" y="300" width="120" height="60" as="geometry" />
        </mxCell>
        <mxCell id="9ZQoxIhX9ublvq8rPNBV-38" value="Start date" style="ellipse;whiteSpace=wrap;html=1;align=center;" vertex="1" parent="1">
          <mxGeometry x="770" y="350" width="100" height="40" as="geometry" />
        </mxCell>
        <mxCell id="9ZQoxIhX9ublvq8rPNBV-40" value="End date (6 weeks from start date)" style="ellipse;whiteSpace=wrap;html=1;align=center;dashed=1;" vertex="1" parent="1">
          <mxGeometry x="890" y="325" width="160" height="90" as="geometry" />
        </mxCell>
        <mxCell id="9ZQoxIhX9ublvq8rPNBV-43" value="Title" style="ellipse;whiteSpace=wrap;html=1;align=center;" vertex="1" parent="1">
          <mxGeometry x="650" y="350" width="100" height="40" as="geometry" />
        </mxCell>
        <mxCell id="9ZQoxIhX9ublvq8rPNBV-45" value="No of Openings" style="ellipse;whiteSpace=wrap;html=1;align=center;" vertex="1" parent="1">
          <mxGeometry x="680" y="480" width="100" height="40" as="geometry" />
        </mxCell>
        <mxCell id="9ZQoxIhX9ublvq8rPNBV-68" style="edgeStyle=orthogonalEdgeStyle;rounded=0;orthogonalLoop=1;jettySize=auto;html=1;exitX=0.25;exitY=0;exitDx=0;exitDy=0;entryX=0.5;entryY=1;entryDx=0;entryDy=0;" edge="1" parent="1" source="9ZQoxIhX9ublvq8rPNBV-47" target="9ZQoxIhX9ublvq8rPNBV-67">
          <mxGeometry relative="1" as="geometry" />
        </mxCell>
        <mxCell id="9ZQoxIhX9ublvq8rPNBV-47" value="Exchange Participant (EP)" style="whiteSpace=wrap;html=1;align=center;" vertex="1" parent="1">
          <mxGeometry x="580" y="670" width="100" height="40" as="geometry" />
        </mxCell>
        <mxCell id="9ZQoxIhX9ublvq8rPNBV-61" style="edgeStyle=orthogonalEdgeStyle;rounded=0;orthogonalLoop=1;jettySize=auto;html=1;exitX=0.5;exitY=0;exitDx=0;exitDy=0;entryX=0;entryY=0.5;entryDx=0;entryDy=0;" edge="1" parent="1" source="9ZQoxIhX9ublvq8rPNBV-48" target="9ZQoxIhX9ublvq8rPNBV-47">
          <mxGeometry relative="1" as="geometry" />
        </mxCell>
        <mxCell id="9ZQoxIhX9ublvq8rPNBV-48" value="EP ID" style="ellipse;whiteSpace=wrap;html=1;align=center;fontStyle=4;" vertex="1" parent="1">
          <mxGeometry x="480" y="750" width="100" height="40" as="geometry" />
        </mxCell>
        <mxCell id="9ZQoxIhX9ublvq8rPNBV-62" style="edgeStyle=orthogonalEdgeStyle;rounded=0;orthogonalLoop=1;jettySize=auto;html=1;entryX=0.5;entryY=1;entryDx=0;entryDy=0;" edge="1" parent="1" source="9ZQoxIhX9ublvq8rPNBV-49" target="9ZQoxIhX9ublvq8rPNBV-47">
          <mxGeometry relative="1" as="geometry" />
        </mxCell>
        <mxCell id="9ZQoxIhX9ublvq8rPNBV-49" value="Name" style="ellipse;whiteSpace=wrap;html=1;align=center;" vertex="1" parent="1">
          <mxGeometry x="610" y="750" width="100" height="40" as="geometry" />
        </mxCell>
        <mxCell id="9ZQoxIhX9ublvq8rPNBV-63" style="edgeStyle=orthogonalEdgeStyle;rounded=0;orthogonalLoop=1;jettySize=auto;html=1;entryX=0.5;entryY=1;entryDx=0;entryDy=0;" edge="1" parent="1" source="9ZQoxIhX9ublvq8rPNBV-50" target="9ZQoxIhX9ublvq8rPNBV-47">
          <mxGeometry relative="1" as="geometry">
            <Array as="points">
              <mxPoint x="800" y="730" />
              <mxPoint x="630" y="730" />
            </Array>
          </mxGeometry>
        </mxCell>
        <mxCell id="9ZQoxIhX9ublvq8rPNBV-50" value="Gender" style="ellipse;whiteSpace=wrap;html=1;align=center;" vertex="1" parent="1">
          <mxGeometry x="750" y="750" width="100" height="40" as="geometry" />
        </mxCell>
        <mxCell id="9ZQoxIhX9ublvq8rPNBV-59" style="edgeStyle=orthogonalEdgeStyle;rounded=0;orthogonalLoop=1;jettySize=auto;html=1;exitX=0;exitY=0.5;exitDx=0;exitDy=0;entryX=1;entryY=0.5;entryDx=0;entryDy=0;" edge="1" parent="1" source="9ZQoxIhX9ublvq8rPNBV-51" target="9ZQoxIhX9ublvq8rPNBV-47">
          <mxGeometry relative="1" as="geometry">
            <mxPoint x="729.9997222214506" y="690.0666666666666" as="targetPoint" />
            <Array as="points">
              <mxPoint x="810" y="710" />
              <mxPoint x="810" y="690" />
            </Array>
          </mxGeometry>
        </mxCell>
        <mxCell id="9ZQoxIhX9ublvq8rPNBV-51" value="Home MC (Country)" style="ellipse;whiteSpace=wrap;html=1;align=center;" vertex="1" parent="1">
          <mxGeometry x="860" y="690" width="100" height="40" as="geometry" />
        </mxCell>
        <mxCell id="9ZQoxIhX9ublvq8rPNBV-57" style="edgeStyle=orthogonalEdgeStyle;rounded=0;orthogonalLoop=1;jettySize=auto;html=1;exitX=0;exitY=0.5;exitDx=0;exitDy=0;entryX=1;entryY=0.5;entryDx=0;entryDy=0;" edge="1" parent="1" source="9ZQoxIhX9ublvq8rPNBV-52" target="9ZQoxIhX9ublvq8rPNBV-47">
          <mxGeometry relative="1" as="geometry">
            <Array as="points">
              <mxPoint x="810" y="660" />
              <mxPoint x="810" y="690" />
            </Array>
          </mxGeometry>
        </mxCell>
        <mxCell id="9ZQoxIhX9ublvq8rPNBV-52" value="Home LC (Local Committee)" style="ellipse;whiteSpace=wrap;html=1;align=center;" vertex="1" parent="1">
          <mxGeometry x="860" y="640" width="100" height="40" as="geometry" />
        </mxCell>
        <mxCell id="9ZQoxIhX9ublvq8rPNBV-65" style="edgeStyle=orthogonalEdgeStyle;rounded=0;orthogonalLoop=1;jettySize=auto;html=1;exitX=0.5;exitY=1;exitDx=0;exitDy=0;entryX=0.5;entryY=0;entryDx=0;entryDy=0;" edge="1" parent="1" source="9ZQoxIhX9ublvq8rPNBV-53" target="9ZQoxIhX9ublvq8rPNBV-47">
          <mxGeometry relative="1" as="geometry">
            <Array as="points">
              <mxPoint x="840" y="650" />
              <mxPoint x="630" y="650" />
            </Array>
          </mxGeometry>
        </mxCell>
        <mxCell id="9ZQoxIhX9ublvq8rPNBV-53" value="Contact number&amp;nbsp;" style="ellipse;whiteSpace=wrap;html=1;align=center;" vertex="1" parent="1">
          <mxGeometry x="790" y="585" width="100" height="40" as="geometry" />
        </mxCell>
        <mxCell id="9ZQoxIhX9ublvq8rPNBV-64" style="edgeStyle=orthogonalEdgeStyle;rounded=0;orthogonalLoop=1;jettySize=auto;html=1;entryX=0.5;entryY=0;entryDx=0;entryDy=0;" edge="1" parent="1" source="9ZQoxIhX9ublvq8rPNBV-54" target="9ZQoxIhX9ublvq8rPNBV-47">
          <mxGeometry relative="1" as="geometry" />
        </mxCell>
        <mxCell id="9ZQoxIhX9ublvq8rPNBV-54" value="Email" style="ellipse;whiteSpace=wrap;html=1;align=center;" vertex="1" parent="1">
          <mxGeometry x="680" y="580" width="100" height="40" as="geometry" />
        </mxCell>
        <mxCell id="9ZQoxIhX9ublvq8rPNBV-69" style="edgeStyle=orthogonalEdgeStyle;rounded=0;orthogonalLoop=1;jettySize=auto;html=1;exitX=0.5;exitY=0;exitDx=0;exitDy=0;entryX=0.5;entryY=1;entryDx=0;entryDy=0;" edge="1" parent="1" source="9ZQoxIhX9ublvq8rPNBV-67" target="9ZQoxIhX9ublvq8rPNBV-36">
          <mxGeometry relative="1" as="geometry" />
        </mxCell>
        <mxCell id="9ZQoxIhX9ublvq8rPNBV-67" value="APPLIES" style="shape=rhombus;double=1;perimeter=rhombusPerimeter;whiteSpace=wrap;html=1;align=center;" vertex="1" parent="1">
          <mxGeometry x="500" y="525" width="120" height="60" as="geometry" />
        </mxCell>
        <mxCell id="9ZQoxIhX9ublvq8rPNBV-80" style="edgeStyle=orthogonalEdgeStyle;rounded=0;orthogonalLoop=1;jettySize=auto;html=1;exitX=0.5;exitY=1;exitDx=0;exitDy=0;entryX=0.5;entryY=0;entryDx=0;entryDy=0;" edge="1" parent="1" source="9ZQoxIhX9ublvq8rPNBV-70" target="9ZQoxIhX9ublvq8rPNBV-79">
          <mxGeometry relative="1" as="geometry" />
        </mxCell>
        <mxCell id="9ZQoxIhX9ublvq8rPNBV-70" value="iGV Members" style="whiteSpace=wrap;html=1;align=center;" vertex="1" parent="1">
          <mxGeometry x="-110" y="300" width="100" height="40" as="geometry" />
        </mxCell>
        <mxCell id="9ZQoxIhX9ublvq8rPNBV-71" value="Entity" style="whiteSpace=wrap;html=1;align=center;" vertex="1" parent="1">
          <mxGeometry x="-500" y="585" width="100" height="40" as="geometry" />
        </mxCell>
        <mxCell id="9ZQoxIhX9ublvq8rPNBV-74" style="edgeStyle=orthogonalEdgeStyle;rounded=0;orthogonalLoop=1;jettySize=auto;html=1;exitX=1;exitY=0.5;exitDx=0;exitDy=0;entryX=0;entryY=0.5;entryDx=0;entryDy=0;" edge="1" parent="1" source="9ZQoxIhX9ublvq8rPNBV-72" target="9ZQoxIhX9ublvq8rPNBV-67">
          <mxGeometry relative="1" as="geometry" />
        </mxCell>
        <mxCell id="9ZQoxIhX9ublvq8rPNBV-72" value="Applied date" style="ellipse;whiteSpace=wrap;html=1;align=center;" vertex="1" parent="1">
          <mxGeometry x="320" y="590" width="130" height="40" as="geometry" />
        </mxCell>
        <mxCell id="9ZQoxIhX9ublvq8rPNBV-91" style="edgeStyle=orthogonalEdgeStyle;rounded=0;orthogonalLoop=1;jettySize=auto;html=1;exitX=0;exitY=0.5;exitDx=0;exitDy=0;entryX=0.5;entryY=0;entryDx=0;entryDy=0;" edge="1" parent="1" source="9ZQoxIhX9ublvq8rPNBV-76" target="9ZQoxIhX9ublvq8rPNBV-90">
          <mxGeometry relative="1" as="geometry" />
        </mxCell>
        <mxCell id="9ZQoxIhX9ublvq8rPNBV-93" style="edgeStyle=orthogonalEdgeStyle;rounded=0;orthogonalLoop=1;jettySize=auto;html=1;exitX=0;exitY=0.5;exitDx=0;exitDy=0;entryX=0.5;entryY=0;entryDx=0;entryDy=0;" edge="1" parent="1" source="9ZQoxIhX9ublvq8rPNBV-76" target="9ZQoxIhX9ublvq8rPNBV-92">
          <mxGeometry relative="1" as="geometry" />
        </mxCell>
        <mxCell id="9ZQoxIhX9ublvq8rPNBV-76" value="Interviews" style="shape=ext;margin=3;double=1;whiteSpace=wrap;html=1;align=center;" vertex="1" parent="1">
          <mxGeometry x="-60" y="580" width="100" height="40" as="geometry" />
        </mxCell>
        <mxCell id="9ZQoxIhX9ublvq8rPNBV-81" style="edgeStyle=orthogonalEdgeStyle;rounded=0;orthogonalLoop=1;jettySize=auto;html=1;exitX=0.5;exitY=1;exitDx=0;exitDy=0;entryX=0.5;entryY=0;entryDx=0;entryDy=0;" edge="1" parent="1" source="9ZQoxIhX9ublvq8rPNBV-79" target="9ZQoxIhX9ublvq8rPNBV-76">
          <mxGeometry relative="1" as="geometry" />
        </mxCell>
        <mxCell id="9ZQoxIhX9ublvq8rPNBV-79" value="Conducts" style="shape=rhombus;double=1;perimeter=rhombusPerimeter;whiteSpace=wrap;html=1;align=center;" vertex="1" parent="1">
          <mxGeometry x="-120" y="420" width="120" height="60" as="geometry" />
        </mxCell>
        <mxCell id="9ZQoxIhX9ublvq8rPNBV-84" style="edgeStyle=orthogonalEdgeStyle;rounded=0;orthogonalLoop=1;jettySize=auto;html=1;exitX=0;exitY=0.5;exitDx=0;exitDy=0;entryX=1;entryY=0.5;entryDx=0;entryDy=0;" edge="1" parent="1" source="9ZQoxIhX9ublvq8rPNBV-82" target="9ZQoxIhX9ublvq8rPNBV-79">
          <mxGeometry relative="1" as="geometry" />
        </mxCell>
        <mxCell id="9ZQoxIhX9ublvq8rPNBV-82" value="Member name" style="ellipse;whiteSpace=wrap;html=1;align=center;" vertex="1" parent="1">
          <mxGeometry x="20" y="365" width="100" height="50" as="geometry" />
        </mxCell>
        <mxCell id="9ZQoxIhX9ublvq8rPNBV-86" style="edgeStyle=orthogonalEdgeStyle;rounded=0;orthogonalLoop=1;jettySize=auto;html=1;exitX=0;exitY=0.5;exitDx=0;exitDy=0;" edge="1" parent="1" source="9ZQoxIhX9ublvq8rPNBV-83">
          <mxGeometry relative="1" as="geometry">
            <mxPoint x="60" y="450" as="targetPoint" />
          </mxGeometry>
        </mxCell>
        <mxCell id="9ZQoxIhX9ublvq8rPNBV-88" style="edgeStyle=orthogonalEdgeStyle;rounded=0;orthogonalLoop=1;jettySize=auto;html=1;" edge="1" parent="1" source="9ZQoxIhX9ublvq8rPNBV-83">
          <mxGeometry relative="1" as="geometry">
            <mxPoint y="450" as="targetPoint" />
            <Array as="points">
              <mxPoint x="10" y="450" />
              <mxPoint x="10" y="450" />
            </Array>
          </mxGeometry>
        </mxCell>
        <mxCell id="9ZQoxIhX9ublvq8rPNBV-83" value="Team" style="ellipse;whiteSpace=wrap;html=1;align=center;" vertex="1" parent="1">
          <mxGeometry x="30" y="430" width="100" height="40" as="geometry" />
        </mxCell>
        <mxCell id="9ZQoxIhX9ublvq8rPNBV-90" value="Interview Questions and answers provided" style="ellipse;whiteSpace=wrap;html=1;align=center;" vertex="1" parent="1">
          <mxGeometry x="-280" y="610" width="160" height="70" as="geometry" />
        </mxCell>
        <mxCell id="9ZQoxIhX9ublvq8rPNBV-92" value="EPM Name and Contact number" style="ellipse;whiteSpace=wrap;html=1;align=center;" vertex="1" parent="1">
          <mxGeometry x="-170" y="700" width="140" height="60" as="geometry" />
        </mxCell>
      </root>
    </mxGraphModel>
  </diagram>
</mxfile>
